<?xml version="1.0" standalone="no"?>
<!DOCTYPE svg PUBLIC "-//W3C//DTD SVG 20010904//EN"
 "http://www.w3.org/TR/2001/REC-SVG-20010904/DTD/svg10.dtd">
<svg version="1.0" xmlns="http://www.w3.org/2000/svg"
 width="1195.000000pt" height="306.000000pt" viewBox="0 0 1195.000000 306.000000"
 preserveAspectRatio="xMidYMid meet">
<metadata>
Created by potrace 1.13, written by Peter Selinger 2001-2015
</metadata>
<g transform="translate(0.000000,306.000000) scale(0.100000,-0.100000)"
fill="#000000" stroke="none">
<path d="M9340 3049 c-1546 -32 -5248 -49 -6835 -31 -882 10 -1073 7 -1253
-23 -137 -23 -320 -86 -435 -150 -53 -30 -100 -55 -102 -55 -10 0 -169 -133
-233 -194 -367 -351 -518 -835 -417 -1332 55 -270 186 -521 374 -717 127 -131
237 -212 406 -296 303 -151 599 -210 1070 -212 139 0 243 -5 262 -12 24 -8 35
-8 47 2 20 17 93 16 2626 -9 2449 -25 6018 -28 6053 -6 12 8 38 17 56 21 19 4
71 23 115 42 411 176 717 662 822 1308 28 171 26 484 -4 633 -98 485 -409 861
-806 976 -175 51 -267 58 -831 61 -286 2 -698 -1 -915 -6z m1383 -110 c192
-11 201 -13 187 -39 -33 -61 16 -136 123 -188 34 -16 75 -44 91 -61 64 -67
117 -61 210 24 l49 46 35 -33 c104 -98 166 -181 231 -307 43 -85 101 -228 101
-250 0 -5 -27 -19 -61 -31 -68 -26 -85 -50 -69 -97 6 -15 19 -79 29 -142 11
-65 25 -117 33 -122 7 -5 25 -9 39 -9 49 0 87 -12 91 -29 14 -53 -28 -412 -62
-532 -10 -36 -11 -37 -62 -35 l-53 1 -46 -88 c-26 -48 -58 -102 -72 -120 -46
-61 -40 -89 28 -128 30 -17 55 -34 55 -38 0 -12 -92 -165 -134 -221 -58 -80
-129 -159 -187 -209 l-51 -44 -26 33 c-56 71 -138 78 -259 22 -119 -56 -116
-52 -108 -144 6 -61 4 -79 -6 -83 -16 -5 -164 -13 -404 -20 -88 -2 -180 -7
-204 -11 l-44 -6 7 65 c9 90 -3 103 -114 117 -107 15 -242 5 -271 -19 -17 -14
-22 -32 -27 -89 l-5 -72 -301 0 c-165 0 -358 3 -427 7 l-127 6 8 27 c10 34 2
80 -17 101 -12 14 -48 18 -224 24 -247 9 -263 5 -280 -59 -6 -22 -14 -52 -17
-66 l-8 -25 -409 4 c-226 2 -411 5 -413 6 -1 1 3 23 10 49 13 49 7 73 -23 86
-8 4 -24 12 -36 18 -13 7 -65 12 -117 12 -70 0 -106 5 -138 19 -69 29 -94 11
-157 -112 l-34 -67 -367 0 -367 0 0 65 c1 54 -3 70 -20 87 -20 19 -32 20 -224
22 l-204 1 -15 -45 c-8 -25 -21 -55 -27 -67 -7 -12 -13 -29 -13 -37 0 -14 -34
-16 -300 -16 l-300 0 0 55 c0 46 -4 60 -25 81 -25 25 -26 25 -145 18 -82 -5
-144 -3 -195 6 -69 12 -77 11 -95 -5 -15 -13 -20 -31 -20 -66 0 -85 22 -79
-286 -79 -269 0 -274 0 -274 20 0 38 -28 88 -57 103 -38 20 -279 52 -324 43
-55 -10 -94 -57 -94 -112 l0 -44 -295 2 -295 3 3 52 c3 45 0 54 -20 66 -54 35
-256 50 -307 24 -18 -8 -31 -30 -45 -75 l-20 -62 -237 0 -236 0 -7 41 c-17
106 -51 124 -237 124 -156 0 -169 -7 -169 -94 0 -31 -4 -62 -8 -69 -16 -24
-393 15 -592 61 l-54 12 3 47 c5 83 -49 148 -148 179 -84 25 -114 19 -167 -39
l-41 -44 -54 34 c-94 60 -208 158 -280 240 l-71 80 30 32 c16 17 37 45 46 61
9 17 28 45 41 64 14 19 25 39 25 46 0 17 -64 96 -89 109 -11 6 -38 28 -58 47
-59 55 -78 62 -150 55 -61 -6 -64 -6 -73 19 -37 96 -69 373 -56 479 l7 56 66
0 c61 0 67 2 99 34 19 19 34 43 34 55 0 11 4 30 9 43 5 13 17 58 26 100 17 73
17 79 1 122 -10 27 -34 60 -57 79 l-39 34 48 79 c54 91 119 176 188 251 59 61
203 183 218 183 6 0 22 -18 36 -40 31 -50 54 -57 122 -34 90 29 320 133 355
160 37 28 63 72 67 113 3 23 9 27 52 34 27 4 166 9 309 10 200 2 259 -1 258
-10 -2 -7 -4 -33 -5 -59 -2 -73 2 -74 238 -74 238 0 243 2 252 88 l5 52 370
-2 371 -3 9 -45 c14 -73 16 -73 170 -63 85 6 141 14 151 22 9 8 16 29 16 47
l0 34 429 0 430 0 -10 -32 c-14 -50 -11 -67 17 -95 l25 -25 132 6 c203 10 227
14 259 46 20 21 28 38 28 64 l0 36 392 -2 391 -3 12 -53 c7 -30 18 -59 24 -65
18 -18 398 -22 431 -5 36 19 56 65 43 98 l-10 27 231 6 c127 4 354 7 504 7
l272 0 0 -38 c0 -21 7 -48 16 -60 15 -21 20 -22 214 -22 197 0 199 0 228 25
20 17 33 39 37 64 l6 39 427 4 c293 3 429 1 434 -6 4 -6 5 -25 2 -42 -7 -41
17 -98 52 -121 22 -14 52 -19 144 -21 63 -1 131 -3 150 -3 60 -2 128 21 165
56 32 30 35 37 35 89 0 36 4 58 13 61 6 2 146 6 310 7 l298 3 -2 -98 c-2 -134
-2 -134 136 -117 68 8 145 10 214 5 91 -6 113 -4 140 10 42 21 61 68 61 149
l0 65 178 -5 c97 -3 253 -9 345 -15z"/>
<path d="M10415 2811 c-55 -3 -106 -10 -112 -14 -8 -5 -13 -32 -13 -72 l0 -64
-56 -11 c-122 -25 -238 -74 -361 -152 l-63 -40 -30 22 c-39 28 -89 35 -136 20
-42 -14 -231 -196 -280 -270 -34 -52 -27 -71 54 -136 l59 -47 -23 -61 c-37
-94 -63 -194 -70 -273 -7 -77 -7 -78 -65 -64 -74 17 -129 -30 -129 -109 0 -88
29 -273 46 -291 19 -21 102 -40 157 -37 l39 3 37 -85 c20 -47 54 -111 74 -143
20 -31 37 -59 37 -61 0 -2 -20 -34 -45 -72 -25 -37 -45 -78 -45 -89 0 -34 49
-89 119 -136 35 -23 79 -59 99 -80 19 -23 51 -44 73 -50 35 -11 42 -10 77 15
22 15 49 37 61 50 l22 24 72 -38 c40 -20 103 -48 140 -61 l68 -24 -7 -62 c-3
-35 -3 -78 0 -98 6 -31 10 -35 39 -35 18 0 59 -7 92 -15 38 -9 114 -14 206
-15 170 0 182 5 183 87 l1 46 85 18 c49 11 118 35 163 58 l77 39 39 -21 c21
-12 50 -30 64 -41 39 -27 72 -14 110 41 30 43 100 132 190 240 20 24 37 49 37
55 0 6 -17 26 -37 46 -72 67 -74 75 -45 146 14 33 37 99 51 146 l27 85 79 8
c120 13 122 13 128 47 4 17 6 113 4 214 -2 221 -5 226 -98 226 l-57 0 -12 88
c-7 48 -22 122 -35 164 l-22 77 44 36 c55 46 56 71 5 185 -66 147 -192 320
-234 320 -9 0 -37 -20 -64 -45 -26 -25 -52 -45 -57 -45 -5 0 -37 17 -71 39
-65 41 -247 131 -264 131 -20 0 -26 25 -23 88 4 107 12 102 -157 100 -81 -1
-192 -4 -247 -7z m226 -831 c125 -32 238 -90 305 -157 126 -125 175 -338 125
-536 -40 -155 -130 -250 -295 -312 -60 -23 -82 -26 -190 -25 -220 2 -305 30
-417 140 -76 75 -137 175 -174 283 -20 61 -25 95 -25 176 0 155 17 245 54 294
62 81 158 135 279 157 78 14 242 4 338 -20z"/>
<path d="M10385 1586 c-63 -28 -105 -101 -105 -182 0 -86 63 -144 156 -144 67
1 120 38 157 110 39 77 39 141 1 181 -45 47 -144 64 -209 35z"/>
<path d="M1469 2801 c-119 -7 -129 -14 -129 -91 l0 -58 -70 -16 c-119 -27
-276 -98 -390 -178 -12 -8 -25 -4 -54 16 -45 30 -92 33 -141 10 -34 -16 -198
-175 -254 -248 -51 -64 -41 -90 62 -171 l38 -30 -26 -65 c-30 -74 -61 -198
-71 -282 -3 -32 -9 -58 -13 -58 -3 0 -24 5 -45 10 -53 12 -99 -8 -122 -51 -16
-31 -16 -42 1 -179 9 -80 23 -155 31 -167 15 -24 94 -45 158 -41 43 3 37 12
100 -122 25 -52 55 -111 67 -130 l22 -36 -46 -69 c-36 -56 -44 -76 -40 -100 7
-40 44 -78 123 -131 36 -23 82 -61 102 -82 62 -68 114 -64 187 12 l34 35 86
-43 c47 -24 110 -51 139 -62 l54 -19 -2 -50 c-2 -27 -2 -70 -1 -95 l1 -46 83
-13 c45 -8 152 -16 238 -18 l157 -4 21 27 c14 18 21 41 21 69 l0 43 52 7 c66
9 145 37 215 74 53 29 56 30 87 14 17 -9 44 -26 59 -39 53 -44 81 -29 161 84
30 43 84 110 120 149 39 42 66 80 66 92 0 20 -43 71 -60 71 -4 0 -15 15 -25
34 -18 33 -18 34 13 108 17 41 40 106 50 144 l19 69 44 7 c24 3 65 7 91 7 79
2 80 2 76 243 -3 242 -2 238 -98 238 l-56 0 -12 92 c-7 50 -22 125 -34 165
l-21 74 24 17 c54 38 71 62 65 93 -24 124 -216 429 -270 429 -8 0 -38 -20 -66
-45 -28 -25 -55 -45 -60 -45 -5 0 -34 16 -65 35 -64 42 -252 135 -271 135 -17
0 -23 24 -23 102 0 37 -2 72 -6 78 -7 11 -225 11 -396 1z m154 -816 c218 -38
374 -131 452 -271 45 -80 65 -167 65 -284 0 -162 -39 -269 -132 -357 -57 -54
-130 -95 -207 -119 -54 -16 -262 -19 -342 -4 -165 31 -318 178 -402 385 -30
77 -32 86 -31 215 0 74 5 160 12 191 43 193 290 296 585 244z"/>
<path d="M1491 1573 c-43 -22 -79 -76 -93 -145 -10 -49 -9 -59 9 -94 39 -76
134 -104 213 -64 97 50 152 201 96 267 -43 51 -157 69 -225 36z"/>
<path d="M7090 2652 l-22 -18 36 -549 c20 -303 41 -613 47 -690 6 -77 12 -279
14 -450 2 -171 4 -313 5 -316 1 -14 52 -29 69 -19 27 14 31 31 32 133 1 51 4
122 8 158 l6 67 175 -164 c96 -90 185 -166 197 -170 33 -9 63 12 63 45 0 30
-29 61 -220 237 -181 166 -210 194 -210 204 0 5 4 10 10 10 5 0 26 12 47 26
101 69 215 75 330 18 73 -37 88 -30 150 68 107 170 110 256 10 332 -54 41
-172 62 -261 47 -87 -14 -180 -58 -242 -114 -68 -60 -84 -65 -84 -24 0 18 -16
271 -35 562 -19 292 -35 542 -35 558 0 29 -31 67 -54 67 -8 0 -24 -8 -36 -18z"/>
<path d="M3763 2539 c-182 -30 -373 -180 -461 -361 -71 -146 -103 -288 -122
-538 -6 -79 -12 -146 -14 -148 -4 -3 -213 32 -263 44 -35 9 -63 -28 -63 -81 0
-75 14 -81 174 -87 75 -2 138 -6 140 -9 2 -2 -1 -62 -6 -134 -14 -195 -7 -628
11 -648 17 -21 64 -22 81 -2 16 19 29 195 29 411 1 88 4 209 8 267 l6 107 183
-7 183 -6 12 26 c9 20 9 33 1 51 -13 29 -32 32 -225 41 -70 3 -135 9 -143 12
-19 7 -18 20 10 213 40 270 91 392 192 459 97 64 226 75 328 28 76 -35 180
-141 220 -222 52 -109 72 -110 168 -9 40 42 110 101 156 131 59 40 82 61 82
76 0 39 -78 153 -154 224 -148 138 -335 195 -533 162z"/>
<path d="M4878 2469 c-23 -13 -23 -41 1 -209 42 -298 58 -536 71 -1095 6 -247
14 -465 16 -483 7 -44 42 -62 79 -38 21 14 25 24 25 61 l0 45 36 -40 c20 -22
66 -54 102 -72 60 -30 76 -33 152 -33 103 0 175 29 243 98 122 121 156 282 98
455 -29 86 -64 135 -122 173 -169 108 -359 65 -475 -108 l-42 -62 -6 197 c-14
398 -38 713 -76 962 -15 103 -23 128 -40 142 -25 20 -38 22 -62 7z m553 -1420
c57 -19 117 -71 146 -125 l27 -52 -27 -41 c-56 -84 -163 -131 -266 -116 -83
12 -139 56 -170 132 -17 41 -10 68 29 122 55 75 169 110 261 80z"/>
<path d="M8730 1934 c-105 -46 -107 -114 -5 -218 46 -46 106 -75 156 -76 72 0
92 72 29 105 -36 19 -58 59 -67 121 -7 50 -32 84 -60 84 -10 -1 -34 -8 -53
-16z"/>
<path d="M6743 1768 c-16 -21 -26 -148 -12 -164 16 -19 93 -18 113 2 20 19 20
27 0 95 -20 67 -29 79 -64 79 -15 0 -32 -6 -37 -12z"/>
<path d="M4240 1751 c-97 -31 -179 -78 -186 -106 -7 -30 18 -65 48 -65 10 0
44 13 76 29 202 101 313 60 372 -139 18 -60 41 -200 33 -200 -2 0 -26 15 -53
34 -92 63 -227 73 -325 23 -57 -28 -143 -115 -173 -173 -56 -109 -72 -272 -36
-364 40 -104 124 -178 236 -206 112 -29 228 1 317 81 23 21 43 36 44 34 2 -2
9 -24 16 -49 19 -66 37 -90 69 -90 54 0 65 35 35 111 -15 38 -17 87 -18 349
-1 256 -4 318 -19 385 -44 198 -95 291 -185 337 -44 23 -65 28 -125 27 -39 0
-95 -8 -126 -18z m186 -749 c72 -37 133 -125 120 -175 -8 -35 -73 -97 -125
-121 -63 -28 -170 -28 -226 1 -50 26 -69 47 -95 106 l-21 46 21 40 c23 46 83
99 131 118 47 18 146 10 195 -15z"/>
<path d="M8490 1599 c-77 -15 -164 -65 -222 -127 -177 -191 -210 -496 -73
-675 40 -52 120 -107 190 -131 157 -53 308 -19 429 96 49 48 54 56 49 85 -11
68 -85 76 -121 13 -27 -46 -125 -83 -227 -84 -69 -1 -88 3 -138 28 -64 31
-109 83 -129 148 -6 21 -9 40 -7 42 2 2 117 11 254 20 346 24 368 26 385 41 8
7 29 20 47 29 44 22 51 66 30 171 -39 191 -144 304 -313 340 -77 16 -89 17
-154 4z m158 -425 c30 -13 51 -27 48 -32 -3 -5 -58 -12 -123 -16 -65 -3 -152
-9 -193 -13 l-75 -6 20 23 c44 49 148 82 230 73 22 -3 64 -16 93 -29z"/>
<path d="M6800 1502 l-22 -17 16 -182 c10 -108 16 -288 16 -445 0 -192 3 -267
12 -276 19 -19 76 -15 87 6 16 30 13 478 -4 682 -19 220 -20 224 -51 239 -31
14 -28 14 -54 -7z"/>
<path d="M6170 1475 c-72 -21 -155 -68 -207 -117 l-41 -40 -7 58 c-9 85 -19
104 -54 104 -48 0 -63 -23 -56 -89 11 -108 35 -448 46 -661 10 -183 14 -218
29 -234 22 -23 64 -15 80 14 8 14 7 86 -1 245 -14 259 -18 245 80 292 45 22
69 28 131 28 66 0 82 -4 137 -34 42 -22 70 -31 85 -27 24 6 101 116 137 196
68 151 -25 267 -221 276 -55 3 -101 -1 -138 -11z"/>
</g>
</svg>
